<svg viewBox="0 0 1056.05 282.72" xmlns="http://www.w3.org/2000/svg" xmlns:xlink="http://www.w3.org/1999/xlink" id="Calque_1" overflow="hidden"><defs></defs><path d="M54.25 99.27 54.25 104.85 56.82 104.85C58.75 104.85 59.88 103.85 59.88 102.01 59.88 100.17 58.75 99.27 56.82 99.27ZM49.68 95.41 56.56 95.41C61.56 95.41 64.56 97.93 64.56 102.08 64.6609 104.549 63.2522 106.833 61 107.85L68.08 117.74 62.58 117.74 56.58 108.74 54.25 108.74 54.25 117.74 49.68 117.74 49.68 95.41Z"/><path d="M75.32 93.5 79 89.19 83.7 89.19 79.47 93.5ZM70.88 95.41 84 95.41 84 99.27 75.45 99.27 75.45 104.44 82.72 104.44 82.72 108.3 75.45 108.3 75.45 113.88 84 113.88 84 117.74 70.88 117.74 70.88 95.41Z"/><path d="M93.89 99.27 93.89 104.85 97 104.85C98.93 104.85 100.09 103.85 100.09 102.01 100.09 100.17 98.88 99.27 97 99.27ZM89.32 95.41 96.75 95.41C101.75 95.41 104.75 97.93 104.75 102.08 104.75 106.23 101.75 108.71 96.75 108.71L93.89 108.71 93.89 117.71 89.32 117.71 89.32 95.41Z"/><path d="M121.79 95.41 126.36 95.41 126.36 109C126.36 114.87 122.88 118.38 117.22 118.38 111.56 118.38 108.11 114.87 108.11 109L108.11 95.41 112.68 95.41 112.68 109.41C112.68 112.41 114.39 114.16 117.25 114.16 120.11 114.16 121.79 112.41 121.79 109.41L121.79 95.41Z"/><path d="M136.59 108 136.59 113.84 139.16 113.84C141.29 113.84 142.57 112.72 142.57 110.84 142.57 108.96 141.29 107.97 139.16 107.97ZM136.59 99.23 136.59 104.11 138.52 104.11C140.26 104.11 141.26 103.25 141.26 101.65 141.26 100.05 140.26 99.23 138.52 99.23ZM132 95.41 138.4 95.41C143.1 95.41 145.93 97.71 145.93 101.47 145.944 103.248 145.046 104.909 143.55 105.87 145.763 106.699 147.234 108.807 147.25 111.17 147.25 115.25 144.07 117.74 138.89 117.74L132 117.74 132 95.41Z"/><path d="M151.94 95.41 156.51 95.41 156.51 113.62 165.07 113.62 165.07 117.74 151.94 117.74 151.94 95.41 151.94 95.41Z"/><path d="M169.09 95.41 173.66 95.41 173.66 117.74 169.09 117.74 169.09 95.41 169.09 95.41Z"/><path d="M197.24 106.57C197.074 102.564 193.692 99.4505 189.686 99.6162 185.68 99.7819 182.567 103.164 182.732 107.17 182.893 111.065 186.102 114.137 190 114.13 193.976 114.157 197.222 110.956 197.249 106.979 197.25 106.843 197.247 106.706 197.24 106.57ZM203.58 119.3C204.127 119.311 204.672 119.226 205.19 119.05L205.19 122.87C204.434 123.172 203.624 123.315 202.81 123.29 200.178 123.215 197.666 122.167 195.76 120.35L193.09 118C186.794 119.745 180.275 116.056 178.53 109.76 176.785 103.463 180.474 96.9447 186.77 95.1996 187.822 94.9081 188.909 94.7636 190 94.77 196.438 94.6149 201.782 99.708 201.938 106.146 201.941 106.287 201.942 106.429 201.94 106.57 201.973 110.194 200.335 113.632 197.5 115.89L198.85 117.16C200.094 118.453 201.787 119.219 203.58 119.3Z"/><path d="M219.61 95.41 224.18 95.41 224.18 109C224.18 114.87 220.7 118.38 215.04 118.38 209.38 118.38 205.93 114.87 205.93 109L205.93 95.41 210.5 95.41 210.5 109.41C210.5 112.41 212.21 114.16 215.07 114.16 217.93 114.16 219.61 112.41 219.61 109.41L219.61 95.41Z"/><path d="M229.84 95.41 242.97 95.41 242.97 99.27 234.41 99.27 234.41 104.44 241.68 104.44 241.68 108.3 234.41 108.3 234.41 113.88 242.97 113.88 242.97 117.74 229.84 117.74 229.84 95.41 229.84 95.41Z"/><path d="M49.68 127.61 62.81 127.61 62.81 131.47 54.25 131.47 54.25 136.63 61.52 136.63 61.52 140.49 54.25 140.49 54.25 149.93 49.68 149.93 49.68 127.61 49.68 127.61Z"/><path d="M71.4 131.47 71.4 137.05 74 137.05C75.93 137.05 77.06 136.05 77.06 134.21 77.06 132.37 75.93 131.47 74 131.47ZM66.83 127.61 73.71 127.61C78.71 127.61 81.71 130.13 81.71 134.27 81.8009 136.753 80.3715 139.042 78.1 140.05L85.18 149.93 79.73 149.93 73.73 140.93 71.4 140.93 71.4 149.93 66.83 149.93 66.83 127.61Z"/><path d="M100.78 140.27 97.69 131.88 94.6 140.27ZM94.69 127.61 100.69 127.61 109.22 149.93 104.36 149.93 102.2 144.13 93.2 144.13 91 149.93 86.17 149.93 94.69 127.61Z"/><path d="M112.68 127.61 118.54 127.61 128.61 143.59 128.61 127.61 133.18 127.61 133.18 149.93 127.32 149.93 117.25 133.89 117.25 149.93 112.68 149.93 112.68 127.61 112.68 127.61Z"/><path d="M155.41 143.27 159 146C157.147 148.482 154.348 150.086 151.27 150.43L148.47 155.06 144.42 155.06 147.25 150.37C140.856 149.025 136.764 142.751 138.109 136.358 139.455 129.964 145.728 125.872 152.122 127.217 154.847 127.79 157.283 129.307 159 131.5L155.39 134.27C154.066 132.325 151.853 131.175 149.5 131.21 145.325 131.425 142.114 134.984 142.329 139.159 142.528 143.034 145.625 146.131 149.5 146.33 151.853 146.365 154.066 145.215 155.39 143.27Z"/><path d="M174.59 140.27 171.5 131.88 168.41 140.27ZM168.51 127.61 174.51 127.61 183 149.93 178.14 149.93 175.99 144.13 166.99 144.13 164.83 149.93 160 149.93 168.53 127.61Z"/><path d="M186.5 127.61 191.07 127.61 191.07 149.93 186.5 149.93 186.5 127.61 186.5 127.61Z"/><path d="M198.66 143.81C199.817 145.443 201.661 146.454 203.66 146.55 205.46 146.55 206.55 145.55 206.55 143.97 206.55 139.97 196.26 140.88 196.26 133.44 196.26 129.9 199.19 126.97 203.46 126.97 206.527 126.947 209.436 128.333 211.35 130.73L208 133.73C206.68 132.04 205.2 130.95 203.5 130.95 202.186 130.828 201.021 131.795 200.9 133.109 200.894 133.166 200.891 133.223 200.89 133.28 200.89 137.28 211.19 136.34 211.19 143.9 211.12 148.05 207.84 150.6 203.72 150.6 200.5 150.749 197.4 149.366 195.36 146.87L198.67 143.87Z"/><path d="M215.97 127.61 229.1 127.61 229.1 131.47 220.54 131.47 220.54 136.63 227.81 136.63 227.81 140.49 220.54 140.49 220.54 146.07 229.1 146.07 229.1 149.93 215.97 149.93 215.97 127.61 215.97 127.61Z"/><path d="M56.17 219 56.34 218.5C54.14 218.09 53.86 218.09 54.73 215.71L55.63 213.27 58.05 213.27C59.14 213.27 59.16 213.72 58.99 214.89L59.62 214.89 61.08 210.95 60.45 210.95C59.9 211.88 59.45 212.57 58.28 212.57L55.89 212.57 57.16 209.11C57.56 208.02 57.79 207.79 59.28 207.79L60.28 207.79C61.82 207.79 62 208.2 62 209.74L62.61 209.74 63.12 207.05 54.06 207.05 53.89 207.56C55.66 207.92 55.82 208.08 55 210.34L53 215.71C52.17 217.95 51.82 218.14 49.79 218.5L49.64 219ZM68.82 212.42C69.13 211.36 68.97 210.42 68.14 210.42 67.31 210.42 66.92 211.16 65.93 213.27L65.93 212C65.93 211.13 65.65 210.36 64.86 210.36 64.07 210.36 63.09 211.79 62.45 213.2L62.88 213.2C63.32 212.56 63.73 212.2 64.06 212.2 64.39 212.2 64.68 212.81 64.06 214.15L62.28 218.08C61.95 218.82 62.28 219.29 63.02 219.29 63.4108 219.351 63.7788 219.089 63.85 218.7L65.6 214.1C66.1 213.49 66.54 212.97 67.1 212.38ZM76.82 210.05 76.12 210 75.35 210.75 75.18 210.75C71.42 210.75 68.18 214.94 68.18 217.99 68.1274 218.678 68.6428 219.279 69.3312 219.332 69.4007 219.337 69.4706 219.336 69.54 219.33 70.54 219.33 71.47 217.95 72.54 216.48L72.54 217.01C72.41 218.51 72.87 219.33 73.67 219.33 74.47 219.33 75.43 217.91 76.08 216.5L75.65 216.5C75.2 217.14 74.79 217.5 74.46 217.5 74.13 217.5 73.86 216.88 74.46 215.5L76.85 210ZM69.82 216.78C69.82 214.78 72.09 212.03 73.36 212.03 73.6202 212.025 73.8796 212.059 74.13 212.13L72.81 215.61C72.05 216.53 70.88 217.61 70.34 217.61 70.02 217.61 69.82 217.35 69.82 216.75M78.16 211.66 79.68 211.66 77.27 218.19C77.0766 218.563 77.2219 219.021 77.5944 219.215 77.6982 219.269 77.8131 219.298 77.93 219.3 79.8326 219.058 81.4784 217.858 82.29 216.12L81.86 216.12C81.1014 216.923 80.136 217.501 79.07 217.79L81.28 211.66 83.55 211.66 83.83 210.72 81.7 210.72 82.54 208.36 81.67 208.36 80.1 210.7 78.23 210.96 78.23 211.64ZM89 216.12 88.44 216.12C87.9331 216.902 87.1265 217.441 86.21 217.61 85.43 217.61 85.03 217.15 85.03 216.12 85.0304 215.703 85.0774 215.287 85.17 214.88L89.74 213.39C90.63 211.29 89.56 210.39 88.3 210.39 86.14 210.39 83.68 213.98 83.68 217.12 83.68 218.53 84.36 219.3 85.41 219.3 86.65 219.3 87.94 218.11 89 216.14M87.43 211.61C88.04 211.61 88.57 212.06 88.29 213.23L85.45 213.88C85.94 212.57 86.77 211.61 87.45 211.61M97.59 212.39C97.9 211.33 97.74 210.39 96.91 210.39 96.08 210.39 95.69 211.13 94.7 213.24L94.7 212C94.7 211.13 94.42 210.36 93.62 210.36 92.82 210.36 91.86 211.79 91.21 213.2L91.64 213.2C92.09 212.56 92.5 212.2 92.83 212.2 93.16 212.2 93.44 212.81 92.83 214.15L91.05 218.08C90.72 218.82 91.05 219.29 91.79 219.29 92.1808 219.351 92.5488 219.089 92.62 218.7L94.37 214.1C94.86 213.49 95.31 212.97 95.87 212.38ZM97.59 218.09C97.26 218.83 97.59 219.3 98.33 219.3 98.7208 219.361 99.0888 219.099 99.16 218.71L100.91 214.11C101.732 213.143 102.826 212.446 104.05 212.11 104.53 212.11 104.46 212.5 104.15 213.11L101.46 218.24C101.261 218.603 101.395 219.059 101.758 219.258 101.869 219.319 101.993 219.35 102.12 219.35 103.737 219.161 105.102 218.06 105.63 216.52L105.2 216.52C104.77 217.182 104.123 217.673 103.37 217.91L105.68 213.28C105.949 212.791 106.102 212.247 106.13 211.69 106.193 211.064 105.735 210.505 105.109 210.442 105.043 210.436 104.976 210.435 104.91 210.44 103.77 210.44 102.61 211.72 101.24 213.29L101.24 212C101.24 211.13 100.96 210.36 100.17 210.36 99.67 210.36 99.17 210.79 98.75 211.36L98.75 211.52C99.61 211.52 99.99 212.75 99.37 214.09L97.59 218.02ZM112.14 208.09C112.736 208.096 113.224 207.616 113.23 207.02 113.23 207.017 113.23 207.013 113.23 207.01 113.219 206.414 112.736 205.935 112.14 205.93 111.544 205.924 111.056 206.404 111.05 207 111.05 207.003 111.05 207.007 111.05 207.01 111.044 207.601 111.519 208.085 112.11 208.09 112.12 208.09 112.13 208.09 112.14 208.09M111.68 211.36C111.836 211.024 111.69 210.626 111.355 210.47 111.284 210.437 111.208 210.417 111.13 210.41 109.509 210.602 108.14 211.706 107.61 213.25L108.04 213.25C108.468 212.582 109.12 212.089 109.88 211.86L107.35 218.37C107.184 218.688 107.308 219.081 107.626 219.247 107.711 219.291 107.804 219.316 107.9 219.32 109.464 219.09 110.762 217.993 111.25 216.49L110.82 216.49C110.388 217.15 109.742 217.641 108.99 217.88L111.68 211.36ZM113.68 211.68 115.2 211.68 112.79 218.21C112.597 218.583 112.742 219.041 113.114 219.235 113.218 219.289 113.333 219.318 113.45 219.32 115.353 219.078 116.998 217.878 117.81 216.14L117.38 216.14C116.621 216.943 115.656 217.521 114.59 217.81L116.81 211.68 119.07 211.68 119.35 210.74 117.15 210.74 118 208.38 117.12 208.38 115.55 210.74 113.68 211 113.68 211.68ZM123.56 209.58 126.78 206.58 126.78 206.24 125.05 206.24 123.05 209.56ZM124.47 216.16 124 216.16C123.493 216.942 122.687 217.481 121.77 217.65 120.99 217.65 120.6 217.19 120.6 216.16 120.597 215.743 120.641 215.327 120.73 214.92L125.3 213.43C126.19 211.33 125.12 210.43 123.86 210.43 121.7 210.43 119.24 214.02 119.24 217.16 119.24 218.57 119.92 219.34 120.97 219.34 122.21 219.34 123.5 218.15 124.56 216.18M123 211.59C123.61 211.59 124.14 212.04 123.86 213.21L121.02 213.86C121.51 212.55 122.34 211.59 123.02 211.59"/><path d="M59.44 185.74 62.66 183.54 62.66 183.2 60.71 183.2 58.93 185.74ZM58.12 192.6C59.21 192.6 59.23 193.04 59.06 194.22L59.69 194.22 61.14 190.27 60.51 190.27C59.97 191.2 59.51 191.89 58.35 191.89L56 191.89 57.2 188.6C57.6 187.5 57.83 187.29 59.32 187.29L60.32 187.29C61.86 187.29 62.04 187.7 62.04 189.22L62.65 189.22 63.16 186.54 54.06 186.54 53.89 187.05C55.66 187.41 55.82 187.57 55 189.83L53 195.2C52.17 197.44 51.82 197.62 49.79 197.98L49.64 198.49 59.8 198.49 61.62 195.64 60.93 195.64C59.723 196.929 58.0548 197.688 56.29 197.75 53.59 197.75 53.84 197.64 54.73 195.2L55.73 192.6ZM69.66 199.6C69.66 198.6 68.72 198.18 67.19 197.72 65.86 197.33 65.27 197.21 65.27 196.79 65.3558 196.333 65.6743 195.953 66.11 195.79 68.0609 195.654 69.5981 194.074 69.68 192.12 69.6813 191.811 69.6201 191.505 69.5 191.22L71.33 191.22 71.61 190.29 68.71 190.29C68.3537 190.075 67.9459 189.961 67.53 189.96 65.5114 189.978 63.8556 191.564 63.75 193.58 63.6992 194.644 64.4499 195.579 65.5 195.76 64.43 196.23 63.83 196.76 63.83 197.44 63.8206 197.794 63.9897 198.128 64.28 198.33 61.8 199.05 60.83 199.87 60.83 201.03 60.83 202.19 62.33 202.63 64.11 202.63 67.11 202.63 69.66 201.01 69.66 199.63M66.08 195.15C65.53 195.15 65.32 194.69 65.32 194.15 65.32 192.69 66.11 190.54 67.32 190.54 67.87 190.54 68.08 191 68.08 191.54 68.08 192.99 67.29 195.14 66.08 195.14M62.66 200.42C62.66 199.56 63.5 199.02 64.66 198.54 65.2373 198.804 65.8321 199.028 66.44 199.21 67.7 199.62 68.18 199.79 68.18 200.16 68.18 200.97 66.81 201.57 64.94 201.57 63.37 201.57 62.61 201.24 62.61 200.42M79.42 189.55 78.73 189.55 77.95 190.3 77.79 190.3C74.02 190.3 70.79 194.49 70.79 197.53 70.7324 198.218 71.2433 198.822 71.9313 198.88 72.0007 198.886 72.0705 198.886 72.14 198.88 73.14 198.88 74.08 197.5 75.14 196.03L75.09 196.55C74.96 198.06 75.42 198.88 76.21 198.88 77 198.88 78 197.39 78.66 196L78.23 196C77.79 196.64 77.37 197 77.04 197 76.71 197 76.45 196.38 77.04 195.05L79.47 189.53ZM72.42 196.28C72.42 194.28 74.68 191.54 75.95 191.54 76.2127 191.537 76.4748 191.568 76.73 191.63L75.41 195.12C74.65 196.04 73.48 197.12 72.93 197.12 72.62 197.12 72.42 196.86 72.42 196.25M81.17 197.37 85.78 185.37 85.63 185.19 82.74 185.52 82.74 185.86 83.3 186.29C83.81 186.68 83.65 187.06 83.19 188.29L79.59 197.68C79.3856 198.04 79.512 198.498 79.8723 198.702 79.9874 198.768 80.1177 198.801 80.25 198.8 81.8603 198.65 83.2218 197.545 83.7 196L83.27 196C82.7781 196.677 82.0742 197.169 81.27 197.4M90.06 187.61C90.6564 187.621 91.1487 187.146 91.1596 186.55 91.1706 185.954 90.696 185.461 90.0996 185.45 89.5034 185.439 89.0111 185.914 89 186.51 89 187.106 89.4835 187.59 90.08 187.59 90.0833 187.59 90.0867 187.59 90.09 187.59M89.63 190.86C89.8077 190.529 89.6836 190.117 89.3527 189.939 89.2684 189.894 89.1755 189.867 89.08 189.86 87.462 190.053 86.0955 191.151 85.56 192.69L86 192.69C86.432 192.03 87.0783 191.539 87.83 191.3L85.31 197.82C85.1438 198.138 85.2669 198.531 85.5851 198.697 85.6672 198.74 85.7575 198.765 85.85 198.77 87.3863 198.537 88.6658 197.47 89.17 196L88.74 196C88.3097 196.668 87.6584 197.163 86.9 197.4L89.6 190.88ZM91.63 191.17 93.15 191.17 90.74 197.7C90.5411 198.07 90.6796 198.531 91.0492 198.729 91.1571 198.787 91.2775 198.818 91.4 198.82 93.3012 198.575 94.9454 197.375 95.76 195.64L95.33 195.64C94.5714 196.443 93.606 197.021 92.54 197.31L94.75 191.17 97 191.17 97.28 190.24 95.08 190.24 95.92 187.88 95.05 187.88 93.48 190.24 91.61 190.5 91.61 191.17ZM101.51 189.08 104.73 186.08 104.73 185.73 103 185.73 101 189.06ZM102.42 195.66 101.85 195.66C101.341 196.436 100.541 196.973 99.63 197.15 98.85 197.15 98.45 196.69 98.45 195.66 98.4504 195.239 98.4974 194.82 98.59 194.41L103.16 192.92C104.05 190.83 102.98 189.92 101.72 189.92 99.56 189.92 97.1 193.51 97.1 196.65 97.1 198.06 97.78 198.83 98.83 198.83 100.07 198.83 101.36 197.63 102.42 195.67M100.85 191.13C101.46 191.13 101.99 191.59 101.71 192.75L98.87 193.41C99.36 192.1 100.19 191.13 100.87 191.13"/><path d="M60 166.08 54 166.08 53.84 166.58C55.61 166.94 55.77 167.11 54.95 169.37L53 174.74C52.17 176.98 51.82 177.16 49.79 177.52L49.64 178.03 58.79 178.03 60.79 174.52 60.1 174.52C58.98 175.75 57.66 177.29 55.63 177.29 54.09 177.29 53.91 177.03 54.73 174.74L56.73 169.37C57.54 167.12 57.91 166.94 59.94 166.58L60.09 166.08ZM66.65 167.08C67.2458 167.108 67.7512 166.647 67.7788 166.051 67.7796 166.034 67.78 166.017 67.78 166 67.7285 165.436 67.2567 165.003 66.69 165 66.1196 164.993 65.6422 165.431 65.6 166 65.5944 166.591 66.0689 167.075 66.6598 167.08 66.6699 167.08 66.6799 167.08 66.69 167.08M66.23 170.36C66.4127 170.038 66.2999 169.629 65.9782 169.447 65.8869 169.395 65.7848 169.365 65.68 169.36 64.0629 169.549 62.6979 170.65 62.17 172.19L62.59 172.19C63.0176 171.522 63.6703 171.029 64.43 170.8L61.9 177.4C61.734 177.718 61.8575 178.111 62.1758 178.277 62.2607 178.321 62.3543 178.346 62.45 178.35 64.0136 178.12 65.3116 177.023 65.8 175.52L65.37 175.52C64.9436 176.185 64.2952 176.678 63.54 176.91L66.23 170.4ZM75.23 171.23C75.23 169.9 74.74 169.41 73.81 169.41 72.66 169.41 71.56 170.62 70.48 172.09L73.21 165 73.06 164.82 70.17 165.14 70.17 165.49 70.74 165.91C71.25 166.31 71.08 166.72 70.62 167.91L67.62 175.51C67.4186 175.958 67.258 176.423 67.14 176.9 67.14 177.69 68.21 178.42 69.14 178.42 71.38 178.42 75.14 174.42 75.14 171.34M70 177C69.55 177 68.91 176.59 68.91 176.23 69.028 175.799 69.1784 175.378 69.36 174.97L70.1 173.02C70.89 172.09 72.1 171.09 72.77 171.09 73.19 171.09 73.5 171.35 73.5 171.96 73.5 173.74 71.82 176.96 70 176.96M81.21 175.12 80.65 175.12C80.1431 175.902 79.3365 176.441 78.42 176.61 77.64 176.61 77.25 176.16 77.25 175.12 77.2521 174.703 77.2956 174.288 77.38 173.88L82 172.46C82.89 170.37 81.81 169.46 80.56 169.46 78.4 169.46 75.93 173.04 75.93 176.19 75.93 177.59 76.61 178.36 77.67 178.36 78.91 178.36 80.2 177.17 81.25 175.2M79.68 170.67C80.29 170.67 80.82 171.13 80.54 172.29L77.7 172.95C78.2 171.64 79.02 170.67 79.7 170.67M89.84 171.46C90.16 170.39 89.99 169.46 89.17 169.46 88.17 169.46 87.94 170.2 86.95 172.31L86.95 171.1C86.95 170.23 86.67 169.46 85.88 169.46 85.09 169.46 84.11 170.88 83.47 172.29L83.9 172.29C84.34 171.65 84.76 171.29 85.09 171.29 85.42 171.29 85.7 171.89 85.09 173.23L83.3 177.16C82.97 177.9 83.3 178.37 84.05 178.37 84.4373 178.425 84.7989 178.165 84.87 177.78L86.62 173.18C87.12 172.58 87.56 172.05 88.13 171.47ZM91.03 170.72 92.24 170.72 89.83 177.25C89.6312 177.613 89.7646 178.069 90.128 178.268 90.2389 178.329 90.3635 178.36 90.49 178.36 92.3891 178.117 94.0328 176.921 94.85 175.19L94.42 175.19C93.6614 175.993 92.696 176.571 91.63 176.86L93.84 170.72 96.1 170.72 96.38 169.79 94.14 169.79 94.98 167.43 94.1 167.43 92.53 169.79 91 170 91 170.67ZM100.49 168.62 103.71 165.62 103.71 165.28 101.98 165.28 99.98 168.6ZM101.4 175.2 100.84 175.2C100.333 175.982 99.5265 176.521 98.61 176.69 97.84 176.69 97.44 176.24 97.44 175.2 97.4421 174.783 97.4856 174.368 97.57 173.96L102.15 172.47C103.04 170.38 101.96 169.47 100.71 169.47 98.55 169.47 96.09 173.05 96.09 176.2 96.09 177.6 96.76 178.37 97.82 178.37 99.06 178.37 100.35 177.18 101.4 175.21M99.83 170.68C100.44 170.68 100.97 171.14 100.69 172.3L97.85 172.96C98.35 171.65 99.17 170.68 99.85 170.68"/><path d="M73.72 72.18C73.72 72.13 73.89 72.18 73.95 72.07L73.5 72.07C73.44 72.07 73.44 72.01 73.44 71.96 73.16 72.01 72.82 72.13 72.54 72.18 72.26 72.23 71.8 72.57 71.35 72.69 70.73 72.91 70.22 73.42 69.54 73.69 69.48 73.69 69.48 73.63 69.48 73.58 69.48 73.53 69.77 73.35 69.88 73.18 69.99 73.01 69.88 73.07 69.82 73.07 70.316 72.5322 70.8655 72.0464 71.46 71.62L71.46 71.4C71.63 71.17 71.91 71.06 72.03 70.78 72.1446 70.5469 72.3455 70.3676 72.59 70.28 72.59 70.22 72.42 70.22 72.42 70.11 72.2 70.11 71.97 70.22 71.74 70.05 71.8433 69.957 71.9664 69.8886 72.1 69.85 72.0478 69.8416 72.0011 69.8128 71.97 69.77 71.91 69.66 72.08 69.54 72.25 69.49 72.4927 69.4811 72.7281 69.4049 72.93 69.27 72.54 69.21 72.08 69.38 71.69 69.16 71.9311 68.4421 72.4348 67.842 73.1 67.48 73.16 67.48 73.27 67.48 73.27 67.48 73.2839 67.7538 73.0904 67.9947 72.82 68.04 73.2855 68.0976 73.7422 68.2118 74.18 68.38 74.12 68.49 74.01 68.38 73.95 68.38 74.23 68.55 74.57 68.44 74.85 68.67 74.68 68.83 74.51 68.67 74.35 68.67 76.1529 69.0152 77.8757 69.6934 79.43 70.67 78.1953 71.2857 76.8836 71.733 75.53 72 75.3775 72.0096 75.2246 71.9892 75.08 71.94 75.08 72 75.08 72.11 75.02 72.11 74.8264 72.0877 74.6308 72.1262 74.46 72.22 74.23 72.33 73.89 72.39 73.72 72.22ZM72.57 76.08 72.57 76.08C72.36 76.23 72.15 76.38 71.93 76.51 71.71 76.64 71.43 76.75 71.18 76.87L71.18 76.87C71.154 76.8482 71.116 76.8482 71.09 76.87 70.8821 76.988 70.6905 77.1325 70.52 77.3L70.44 77.38 70.44 77.38C70.4109 77.4041 70.3841 77.4309 70.36 77.46L70.36 77.46 70.24 77.59C70.2159 77.6191 70.1891 77.6459 70.16 77.67 70.16 77.67 70.03 77.67 70.04 77.67L70.04 77.67 69.94 77.67 69.85 77.67 69.77 77.67 69.56 77.84C69.45 77.95 69.34 78.07 69.24 78.19L69.24 78.19 69.24 78.19 69.24 78.19 69.24 78.19 69.24 78.19C69.2429 78.2099 69.2429 78.2301 69.24 78.25L69.24 78.25 69.24 78.25 69.24 78.25 69.24 78.25C69.2196 78.2222 69.2028 78.192 69.19 78.16L69.19 78.16 69.19 78.16 69.37 77.96 69.37 77.96 69.43 77.88 69.52 77.76 69.52 77.76 69.7 77.52 69.7 77.52 69.7 77.52C69.7301 77.4824 69.7569 77.4422 69.78 77.4L69.84 77.29 69.84 77.29 69.84 77.29 69.9 77.16 69.9 77.16C69.9043 77.1402 69.9043 77.1198 69.9 77.1L69.9 77.1 69.9 77.1C69.9 77.1 69.9 77.1 69.9 77.02 69.9 76.94 69.9 77.02 69.9 77.02 69.9667 76.9153 70.0402 76.8151 70.12 76.72L70.12 76.72 69.91 76.9C69.84 76.95 69.73 76.9 69.8 76.82L69.93 76.7 69.93 76.7C70.0165 76.5937 70.1137 76.4965 70.22 76.41L70.39 76.28 70.39 76.28C70.4245 76.2289 70.4648 76.1819 70.51 76.14L70.51 76.14C71.05 75.62 71.96 75.65 72.67 75.32 72.96 75.2 73.29 75.37 73.58 75.32 73.7573 75.303 73.9355 75.3414 74.09 75.43 73.58 75.7 73.09 76.01 72.65 76.3ZM73.57 76.54C73.5353 76.6055 73.4876 76.6634 73.43 76.71 73.5 76.71 73.55 76.71 73.5 76.79 73.3824 76.9181 73.2393 77.0203 73.08 77.09L73 77.09 72.79 77.29C72.72 77.35 72.41 77.29 72.5 77.22L72.92 76.83C73.0047 76.762 73.0849 76.6885 73.16 76.61 73.1947 76.562 73.2349 76.5184 73.28 76.48 73.28 76.48 73.62 76.42 73.58 76.53ZM71 68.15C71 68.26 70.88 68.27 70.83 68.37 70.7871 68.4709 70.7089 68.5527 70.61 68.6 70.55 68.6 70.5 68.6 70.5 68.54 70.5474 68.3037 70.7199 68.112 70.95 68.04 70.95 68.04 70.95 68.04 70.95 68.15ZM66.31 71.85C66.2816 71.8159 66.2642 71.7741 66.26 71.73 66.9296 70.8377 67.5123 69.8833 68 68.88 68.7154 68.4563 69.3627 67.927 69.92 67.31 70.8115 66.2983 71.8829 65.4608 73.08 64.84 73.5629 64.6947 74.0806 64.7158 74.55 64.9 74.38 65.12 74.1 65.07 73.87 65.24 73.8072 65.2466 73.7448 65.2245 73.7 65.18 73.7459 65.1361 73.7681 65.073 73.76 65.01 73.19 65.63 72.4 65.91 71.95 66.64 71.61 67.2 71.39 67.92 70.65 68.09 70.43 68.15 70.71 67.92 70.59 67.98 68.9506 69.04 67.4836 70.3452 66.24 71.85ZM74.96 73.08C74.85 73.08 74.62 73.08 74.68 73.02 74.73 72.74 75.13 72.74 75.36 72.63 75.59 72.52 75.64 72.46 75.75 72.52 75.86 72.58 76.03 72.63 76.15 72.74 75.81 73.08 75.36 72.91 74.96 73.08ZM83.65 77.08C83.97 76.76 84.3 76.42 84.65 76.08L84.65 76.08C85.2339 75.3993 85.8655 74.7611 86.54 74.17 86.7303 73.9941 86.9343 73.8336 87.15 73.69 87.21 73.63 87.21 73.52 87.26 73.46 86.98 73.57 86.81 73.8 86.53 73.91 86.47 73.91 86.42 73.85 86.47 73.8L87.08 73.35 87.08 73.35C87.02 73.35 87.02 73.29 87.02 73.24 86.32 73.2286 85.6532 73.538 85.21 74.08 85.1 74.08 84.99 74.02 84.93 74.02 84.08 74.3 83.46 75.02 82.61 75.37L82.61 75.25C82.2844 75.4019 81.9505 75.5354 81.61 75.65 81.1382 75.704 80.6618 75.704 80.19 75.65 79.51 75.72 78.82 75.87 78.19 76.01L78.13 76.01C77.7804 76.1077 77.4445 76.2488 77.13 76.43L77.13 76.43 77.05 76.53C76.9396 76.6612 76.8077 76.7728 76.66 76.86 76.323 77.0712 76.0081 77.3158 75.72 77.59 75.6911 77.6017 75.6589 77.6017 75.63 77.59 75.33 77.88 75.03 78.17 74.72 78.45 74.6648 78.4683 74.6052 78.4683 74.55 78.45L74.55 78.45 74.55 78.45 74.7 78.21C74.7 78.12 74.81 78.04 74.87 77.95 74.9409 77.8305 75.0211 77.7168 75.11 77.61 75.125 77.5891 75.125 77.5609 75.11 77.54 75.0843 77.53 75.0557 77.53 75.03 77.54 75.331 77.2608 75.6671 77.0221 76.03 76.83L76.03 76.83C76.03 76.83 75.93 76.83 75.96 76.83 75.9968 76.7824 76.0302 76.7323 76.06 76.68L76.06 76.68 76.06 76.68C75.9693 76.7376 75.8825 76.8011 75.8 76.87 75.66 76.99 75.56 77.23 75.35 77.23L75.27 77.23 75.21 77.23 75.21 77.23 75.21 77.23 75.21 77.23 75.21 77.23 75.21 77.23 75.21 77.23 75.21 77.16 75.21 77.16 75.28 77.04 75.28 76.98 75.28 76.87C75.28 76.87 75.28 76.79 75.28 76.77 75.3909 76.6392 75.5226 76.5277 75.67 76.44L75.67 76.44C75.89 76.33 76.11 76.2 76.32 76.08L76.42 76C76.1009 76.1038 75.7979 76.2519 75.52 76.44L75.42 76.44C75.3762 76.4631 75.3238 76.4631 75.28 76.44 75.28 76.44 75.28 76.44 75.28 76.44 75.28 76.44 75.5 76.27 75.62 76.16 75.74 76.05 75.73 76.16 75.73 76.16 77.4 74.42 79.88 74.76 82 74L82.51 73.67C82.8 73.55 83.02 73.27 83.36 73.1 83.8303 72.8007 84.1834 72.3487 84.36 71.82 84.3558 71.7759 84.3384 71.734 84.31 71.7 83.5965 72.4597 82.7533 73.0862 81.82 73.55 80.6271 73.9971 79.3639 74.2274 78.09 74.23 78.15 74.11 78.26 74.11 78.37 74.11 78.37 73.95 78.48 73.89 78.6 73.78L78.77 73.78C78.77 73.78 78.77 73.67 78.88 73.67 78.99 73.67 79.16 73.61 79.11 73.61 78.94 73.39 78.6 73.78 78.31 73.61 78.43 73.5 78.37 73.33 78.48 73.27L78.71 73.27C78.7213 73.1865 78.76 73.1091 78.82 73.05 79.67 72.54 80.46 72.15 81.25 71.7 81.08 71.7 80.97 71.87 80.8 71.76 80.91 71.76 80.8 71.59 80.91 71.59 81.54 71.42 82.04 71.09 82.67 70.86 82.44 70.86 82.27 71.03 82.04 70.86 82.16 70.86 82.21 70.7 82.38 70.7L82.38 70.53C82.38 70.47 82.44 70.47 82.5 70.47 82.4608 70.4811 82.4192 70.4811 82.38 70.47 82.44 70.35 82.61 70.41 82.72 70.3 82.67 70.3 82.55 70.3 82.55 70.24 82.7474 70.0423 83.011 69.9247 83.29 69.91 83.23 69.79 83.06 69.91 83.06 69.79 83.06 69.67 83.12 69.79 83.17 69.79L83 69.79C82.89 69.73 83 69.62 83 69.56 83.2458 69.147 83.4152 68.6931 83.5 68.22 83.5 68.22 83.39 68.22 83.39 68.16 82.7039 68.7125 81.8752 69.0593 81 69.16L80.72 69.16C80.3948 69.2924 80.0271 69.2703 79.72 69.1 79.5173 68.9712 79.3295 68.8202 79.16 68.65 78.7289 68.3831 78.2694 68.1651 77.79 68 76.3862 67.5457 74.9148 67.336 73.44 67.38 74.0859 67.1258 74.756 66.9381 75.44 66.82 76.3609 66.4701 77.3351 66.2807 78.32 66.26 78.1342 66.235 77.9458 66.235 77.76 66.26 76.9387 66.2677 76.1219 66.382 75.33 66.6 74.76 66.71 74.25 66.94 73.69 67.05 73.35 67.16 73.18 67.5 72.78 67.44L72.78 67.27C73.2785 66.5324 74.0538 66.0276 74.93 65.87 75.9302 65.7667 76.94 65.8037 77.93 65.98 78.6523 66.06 79.3676 66.1937 80.07 66.38 80.36 66.38 80.41 66.82 80.64 66.88 80.87 66.94 81.32 66.88 81.64 67.1 81.64 66.99 81.58 66.88 81.64 66.77 81.86 66.54 82.14 66.77 82.37 66.71 82.82 66.43 81.97 65.93 81.75 65.54 81.7563 65.4945 81.7774 65.4524 81.81 65.42 82.2059 65.8541 82.6603 66.231 83.16 66.54 83.44 66.66 84.16 66.82 84.01 66.54 83.6459 65.9297 83.2094 65.3656 82.71 64.86L82.71 64.63C82.6 64.63 82.6 64.63 82.54 64.52L82.54 64.3C82.31 64.19 82.37 63.96 82.26 63.79 82.15 63.62 82.2 63.12 82.09 62.79 81.9809 62.465 81.9039 62.13 81.86 61.79 81.69 60.84 81.47 60 81.35 59.1 81.24 58.04 81.97 57.2 82.48 56.25 82.8489 55.525 83.396 54.9056 84.07 54.45 84.2952 53.784 84.66 53.1737 85.14 52.66 85.6289 52.1612 86.2235 51.7785 86.88 51.54 87.3728 51.3231 87.8768 51.1329 88.39 50.97L49.6 50.97 49.6 80.59 77.07 80.59C78.2336 79.8681 79.4543 79.2427 80.72 78.72 81.7411 78.2924 82.7078 77.7453 83.6 77.09Z" fill="#293173"/><path d="M131.85 50.94 99.67 50.94C99.7782 50.975 99.8822 51.022 99.98 51.08L100.79 51.51C101.227 51.7029 101.601 52.0147 101.87 52.41 101.98 52.57 102.15 52.91 102.04 53.13 101.93 53.35 101.87 53.86 101.59 53.97 101.212 54.1207 100.8 54.1623 100.4 54.09 100.169 54.0793 99.9406 54.0389 99.72 53.97 100.59 54.2475 101.359 54.7764 101.93 55.49 101.93 55.6 102.21 55.66 102.43 55.66 102.49 55.66 102.49 55.77 102.49 55.82 102.49 55.87 102.26 55.99 102.32 56.16L102.49 56.16C102.77 56.05 102.72 55.49 103.11 55.66 103.399 55.8334 103.5 56.2036 103.34 56.5 103.126 56.7014 102.899 56.8885 102.66 57.06 102.601 57.1832 102.601 57.3268 102.66 57.45 102.803 57.6489 102.899 57.8782 102.94 58.12 103.11 58.51 103.17 58.96 103.34 59.35 103.606 60.1633 103.738 61.0144 103.73 61.87 103.73 62.32 103.51 62.71 103.73 63.16 103.876 63.5823 104.085 63.9801 104.35 64.34 104.577 64.6256 104.784 64.9263 104.97 65.24 105.31 65.8 105.97 66.36 105.65 67.03 105.48 67.42 104.86 67.36 104.46 67.59 104.06 67.82 104.46 68.32 104.58 68.59 104.86 69.09 104.24 69.43 103.84 69.59 103.95 69.75 104.18 69.7 104.24 69.81 104.24 70.09 104.58 70.26 104.41 70.54 104.24 70.82 103.5 71.04 103.84 71.54 104.005 71.9383 103.983 72.3897 103.78 72.77 103.607 73.1989 103.232 73.5138 102.78 73.61 102.429 73.7095 102.06 73.73 101.7 73.67 101.598 73.6022 101.482 73.5609 101.36 73.55 100.408 73.3661 99.4466 73.2359 98.48 73.16 98.2078 73.2019 97.9422 73.2792 97.69 73.39 97.4392 73.5685 97.2079 73.7729 97 74L97 74 96.88 74.14 96.8 74.22 96.8 74.28C96.6386 74.4863 96.4916 74.7035 96.36 74.93L96.36 74.93C96.3636 74.9566 96.3636 74.9835 96.36 75.01 96.1887 75.3306 96.0449 75.6651 95.93 76.01 95.5848 76.864 95.6065 77.8225 95.99 78.66 96.06 78.73 97.85 79.28 99.1 79.83 99.5573 80.0244 100.002 80.2482 100.43 80.5L132.03 80.5 132.03 50.94Z" fill="#E10814"/><path d="M101.59 61.76C101.81 61.81 102.15 61.81 102.15 61.92 102.04 62.37 101.36 62.48 101.02 62.92L100.85 62.92C100.68 63.04 100.74 63.32 100.57 63.32 100.399 63.2818 100.22 63.2993 100.06 63.37 100.272 63.614 100.588 63.7406 100.91 63.71 101.008 63.7397 101.076 63.828 101.08 63.93 101.116 63.9422 101.154 63.9422 101.19 63.93 101.25 63.93 101.31 63.93 101.31 63.93L101.31 64.16C101.14 64.38 100.85 64.27 100.63 64.32 101.055 64.4401 101.505 64.4401 101.93 64.32 102.27 64.21 101.93 63.65 102.15 63.37 102.04 63.37 102.15 63.2 102.04 63.2 102.15 63.09 102.27 62.92 102.38 62.87 102.514 62.8708 102.64 62.8076 102.72 62.7 102.72 62.59 102.49 62.53 102.55 62.42 102.89 62.19 103.17 61.86 103.06 61.52 103 61.35 102.55 61.35 102.27 61.24 101.937 61.1687 101.592 61.1894 101.27 61.3 100.981 61.3486 100.696 61.4222 100.42 61.52 100.034 61.6505 99.6693 61.8394 99.34 62.08 99.7466 61.9347 100.165 61.8243 100.59 61.75 100.922 61.7012 101.258 61.7012 101.59 61.75Z" fill="#9D9D9C"/><path d="M437.84 88.28C447.67 77.18 450.99 59.93 451.39 50.76L426.77 50.81 426.77 50.93 428.92 50.93C429 62.05 432.29 75.57 437.84 88.29" fill="#FBBF0D"/><path d="M522.37 75.92 522.24 75.92 523 78.2C508.09 83.52 497.15 90.2 488.87 98.29 495.04 101.03 501.719 102.434 508.47 102.41 515.13 102.41 521.79 102.71 530.14 99.41Z" fill="#EA6409"/><path d="M485 74.49C474 68 468.72 54.18 468.31 50.9 467.48 50.9 455.24 50.9 455.24 50.9 455.24 60.02 463.9 82.22 481.16 94.01 482.23 94.74 483.41 95.45 484.64 96.15 491.47 89.25 500.08 83.24 511.22 78.15 501.36 78.91 489.99 77.47 485 74.5" fill="#F49D54"/><path d="M530.19 99.47 522.37 75.91C486.44 88.72 472.67 109.48 464.12 138.91 473.146 139.408 482.085 140.945 490.76 143.49 495.88 120.37 502.81 109.3 530.19 99.49" fill="#F49D54"/><path d="M500.4 151.69C501.94 163.74 508.01 178.69 523.4 195.79L539.71 181.07C528.39 167.82 515.25 158.01 500.42 151.69" fill="#64C6F1"/><path d="M521.91 128.72C523.55 122.78 528.31 118.2 534.97 116.14L531.15 103.14C516.53 107.67 505.49 118.72 501.63 132.7 500.393 137.259 499.85 141.979 500.02 146.7 512.207 151.598 523.387 158.7 533 167.65 524.57 153.48 519.77 136.65 521.95 128.72" fill="#7E97CE"/><path d="M523.31 195.81 541.49 179.46C515.84 149.46 483.7 139.95 452.68 140.72 455.266 149.32 457.31 158.074 458.8 166.93 476.38 165.49 502 170.87 523.31 195.81" fill="#7E97CE"/><path d="M456.08 180.08C436.52 189.39 435.15 208.44 433.76 219.83L454.59 223.52C457.28 210.9 457.71 195.87 456.08 180.08" fill="#73B0A5"/><path d="M461.05 209.71C463.53 204.63 467.11 200.27 472.05 198.13 486.99 191.73 502.19 198.13 509.94 207.74L519.27 199.48C506.33 183.39 483.8 171.03 462.45 177.59 461.72 177.81 461.03 178.07 460.34 178.32 461.546 188.739 461.77 199.249 461.01 209.71" fill="#60B467"/><path d="M447 130.38C438.85 134.48 430.14 136 421.69 136.54 433.02 156.43 438.69 182.54 433.76 219.82L456.76 223.94C462.81 195.79 457.51 159.51 446.95 130.38" fill="#60B467"/><path d="M356.72 93.4 346.28 113.27C368.87 125.12 388.72 131.34 406.79 132.27 398.18 119.2 383.65 105.59 356.72 93.45" fill="#C6CD2C"/><path d="M402.19 161.31C409.87 181.67 395.27 203.79 390.72 212.31L402.46 214.71C410.67 199.39 425.29 175.63 415.34 149.24 413.739 144.964 411.81 140.818 409.57 136.84 397.16 136.62 384 133.95 369.79 128.75 384.47 138.12 397.64 149.28 402.19 161.35" fill="#B0CC4E"/><path d="M439.49 101.6C419.79 114.74 392.62 112.09 356.73 93.24L345.27 115.05C369.9 127.98 391.77 134.41 411.32 134.41 427.6 134.41 442.69 132.87 455.27 122.09 449.112 116.001 443.804 109.109 439.49 101.6" fill="#B0CC4E"/><path d="M411.7 83.2C396.85 90.71 373.4 82.2 365.18 77.5L358.68 89.64C368.24 95.16 385.22 100.25 403.19 100.25 410.314 100.321 417.408 99.3299 424.24 97.31 427.943 96.1444 431.37 94.2355 434.31 91.7 430.014 82.5989 427.025 72.9369 425.43 63 423.07 72.29 417.86 80.11 411.7 83.23" fill="#FDEB7D"/><path d="M451.36 50.81 426.77 50.76C426.94 76.38 443.46 113.76 465.59 127.16 468.484 119.11 472.475 111.499 477.45 104.54 461.9 90.45 451.45 68.17 451.36 50.81" fill="#FDEB7D"/><path d="M522.32 76.11 522.19 76.11 522.99 78.34C508.07 83.66 497.13 90.4 488.85 98.44 495.024 101.176 501.707 102.577 508.46 102.55 515.11 102.55 521.77 102.85 530.12 99.55Z" fill="#EF7757"/><path d="M500.48 151.59C502.02 163.65 508.09 178.59 523.48 195.69L539.77 181C528.437 167.74 515.34 157.943 500.48 151.61" fill="#5A71B4"/><path d="M456.32 180.1C436.76 189.41 435.39 208.46 434 219.85L454.83 223.54C457.52 210.92 457.95 195.89 456.32 180.1" fill="#448D60"/><path d="M356.73 93.49 346.29 113.36C368.88 125.21 388.73 131.43 406.79 132.36 398.19 119.29 383.66 105.68 356.73 93.54" fill="#96AB5B"/><path d="M437.66 88.26C447.49 77.16 450.81 59.91 451.21 50.74L426.59 50.74 426.59 50.87 428.75 50.87C428.82 61.99 432.11 75.51 437.66 88.23" fill="#F7D05C"/><text fill="#EF7757" font-family="Marianne-Bold,Marianne" font-weight="700" font-size="107.02" letter-spacing="-0.04em" transform="translate(555.14 175.07)">C<tspan letter-spacing="-0.03em" x="74.91" y="0">e</tspan><tspan letter-spacing="-0.05em" x="133.66" y="0">r</tspan><tspan letter-spacing="-0.03em" x="171.65" y="0">ema</tspan></text><text fill="#405678" font-family="Marianne-Regular,Marianne" font-size="19.86" transform="matrix(0.92 0 0 1 563.6 207.59)"><tspan letter-spacing="0.1em">CLIM</tspan><tspan letter-spacing="0.03em" x="57.31" y="0">A</tspan><tspan letter-spacing="0.1em" x="72.54" y="0">T</tspan><tspan letter-spacing="0.1em" x="87" y="0"> </tspan><tspan letter-spacing="0.1em" x="94.35" y="0">&amp;</tspan><tspan letter-spacing="0.1em" x="111.12" y="0"> </tspan><tspan letter-spacing="0.1em" x="118.47" y="0">T</tspan><tspan letter-spacing="0.1em" x="132.93" y="0">ERRI</tspan><tspan letter-spacing="0.06em" x="183.8" y="0">T</tspan><tspan letter-spacing="0.1em" x="197.56" y="0">OIRE</tspan><tspan letter-spacing="0.1em" x="252.32" y="0">S</tspan><tspan letter-spacing="0.1em" xml:space="preserve" x="265.97" y="0"> DE DEMAI</tspan><tspan x="387.32" y="0">N</tspan></text></svg>