<svg viewBox="0 0 2000 2000" xmlns="http://www.w3.org/2000/svg" xmlns:xlink="http://www.w3.org/1999/xlink" id="Calque_1" xml:space="preserve" overflow="hidden"><g><defs><rect x="97.7" y="68.7" width="1804.6" height="1862.5" id="SVGID_1_"/></defs><clipPath id="SVGID_00000031911628597308032360000003010636386735036844_"><use width="100%" height="100%" xlink:href="#SVGID_1_" overflow="visible"></use></clipPath><g clip-path="url(#SVGID_00000031911628597308032360000003010636386735036844_)"><rect x="-4789.8" y="-1218.6" width="6955.9" height="5.1" fill="#EF7858" transform="matrix(0.7071 -0.7071 0.7071 0.7071 475.653 -1283.8)"/><rect x="-4770.4" y="-1199.1" width="6955.9" height="5.1" fill="#EF7858" transform="matrix(0.7071 -0.7071 0.7071 0.7071 467.571 -1264.36)"/><rect x="-4751.2" y="-1179.8" width="6955.9" height="5.1" fill="#EF7858" transform="matrix(0.7071 -0.7071 0.7071 0.7071 459.564 -1245.13)"/><rect x="-4731.8" y="-1160.7" width="6955.9" height="5.1" fill="#EF7858" transform="matrix(0.7071 -0.7071 0.7071 0.7071 451.677 -1225.82)"/><rect x="-4712.6" y="-1141.3" width="6955.9" height="5.1" fill="#EF7858" transform="matrix(0.7071 -0.7071 0.7071 0.7071 443.653 -1206.55)"/><rect x="-4693.2" y="-1121.9" width="6955.9" height="5.1" fill="#EF7858" transform="matrix(0.7071 -0.7071 0.7071 0.7071 435.572 -1187.16)"/><rect x="-4673.9" y="-1102.7" width="6955.9" height="5.1" fill="#EF7858" transform="matrix(0.7071 -0.7071 0.7071 0.7071 427.665 -1167.86)"/><rect x="-4654.5" y="-1083.3" width="6955.9" height="5.1" fill="#EF7858" transform="matrix(0.7071 -0.7071 0.7071 0.7071 419.601 -1148.49)"/><rect x="-4635.2" y="-1064" width="6955.9" height="5.1" fill="#EF7858" transform="matrix(0.7071 -0.7071 0.7071 0.7071 411.577 -1129.21)"/><rect x="-4615.9" y="-1044.8" width="6955.9" height="5.1" fill="#EF7858" transform="matrix(0.7071 -0.7071 0.7071 0.7071 403.673 -1109.9)"/><rect x="-4596.8" y="-1025.4" width="6955.9" height="5.1" fill="#EF7858" transform="matrix(0.7071 -0.7071 0.7071 0.7071 395.582 -1090.71)"/><rect x="-4577.4" y="-1006.2" width="6955.9" height="5.1" fill="#EF7858" transform="matrix(0.7071 -0.7071 0.7071 0.7071 387.679 -1071.37)"/><rect x="-4558" y="-986.8" width="6955.9" height="5.1" fill="#EF7858" transform="matrix(0.7071 -0.7071 0.7071 0.7071 379.614 -1052)"/><rect x="-4538.6" y="-967.6" width="6955.9" height="5.1" fill="#EF7858" transform="matrix(0.7071 -0.7071 0.7071 0.7071 371.711 -1032.66)"/><rect x="-4519.4" y="-948.2" width="6955.9" height="5.1" fill="#EF7858" transform="matrix(0.7071 -0.7071 0.7071 0.7071 363.686 -1013.41)"/><rect x="-4500.2" y="-929" width="6955.9" height="5.1" fill="#EF7858" transform="matrix(0.7071 -0.7071 0.7071 0.7071 355.69 -994.16)"/><rect x="-4480.8" y="-909.5" width="6955.9" height="5.1" fill="#EF7858" transform="matrix(0.7071 -0.7071 0.7071 0.7071 347.609 -974.771)"/><rect x="-4461.6" y="-890.2" width="6955.9" height="5.1" fill="#EF7858" transform="matrix(0.7071 -0.7071 0.7071 0.7071 339.602 -955.536)"/><rect x="-4442.2" y="-871" width="6955.9" height="5.1" fill="#EF7858" transform="matrix(0.7071 -0.7071 0.7071 0.7071 331.698 -936.197)"/><rect x="-4422.9" y="-851.7" width="6955.9" height="5.1" fill="#EF7858" transform="matrix(0.7071 -0.7071 0.7071 0.7071 323.695 -916.918)"/><rect x="-4403.7" y="-832.4" width="6955.9" height="5.1" fill="#EF7858" transform="matrix(0.7071 -0.7071 0.7071 0.7071 315.703 -897.666)"/><rect x="-4384.3" y="-813" width="6955.9" height="5.1" fill="#EF7858" transform="matrix(0.7071 -0.7071 0.7071 0.7071 307.622 -878.278)"/><rect x="-4364.9" y="-793.8" width="6955.9" height="5.1" fill="#EF7858" transform="matrix(0.7071 -0.7071 0.7071 0.7071 299.719 -858.938)"/><rect x="-4345.7" y="-774.5" width="6955.9" height="5.1" fill="#EF7858" transform="matrix(0.7071 -0.7071 0.7071 0.7071 291.712 -839.703)"/><rect x="-4326.3" y="-755" width="6955.9" height="5.1" fill="#EF7858" transform="matrix(0.7071 -0.7071 0.7071 0.7071 283.613 -820.283)"/><rect x="-4307.1" y="-735.8" width="6955.9" height="5.1" fill="#EF7858" transform="matrix(0.7071 -0.7071 0.7071 0.7071 275.603 -801.086)"/><rect x="-4287.8" y="-716.5" width="6955.9" height="5.1" fill="#EF7858" transform="matrix(0.7071 -0.7071 0.7071 0.7071 267.699 -781.747)"/><rect x="-4268.4" y="-697.1" width="6955.9" height="5.1" fill="#EF7858" transform="matrix(0.7071 -0.7071 0.7071 0.7071 259.618 -762.358)"/><rect x="-4249.2" y="-677.8" width="6955.9" height="5.1" fill="#EF7858" transform="matrix(0.7071 -0.7071 0.7071 0.7071 251.611 -743.123)"/><rect x="-4229.9" y="-658.5" width="6955.9" height="5.1" fill="#EF7858" transform="matrix(0.7071 -0.7071 0.7071 0.7071 243.623 -723.827)"/><rect x="-4210.5" y="-639.3" width="6955.9" height="5.1" fill="#EF7858" transform="matrix(0.7071 -0.7071 0.7071 0.7071 235.737 -704.519)"/><rect x="-4191.3" y="-620" width="6955.9" height="5.1" fill="#EF7858" transform="matrix(0.7071 -0.7071 0.7071 0.7071 227.713 -685.253)"/><rect x="-4152.5" y="-581.4" width="6955.9" height="5.1" fill="#EF7858" transform="matrix(0.7071 -0.7071 0.7071 0.7071 211.745 -646.541)"/><rect x="-4171.9" y="-600.6" width="6955.9" height="5.1" fill="#EF7858" transform="matrix(0.7071 -0.7071 0.7071 0.7071 219.631 -665.864)"/><rect x="-4133.2" y="-562" width="6955.9" height="5.1" fill="#EF7858" transform="matrix(0.7071 -0.7071 0.7071 0.7071 203.66 -627.19)"/><rect x="-4113.9" y="-542.6" width="6955.9" height="5.1" fill="#EF7858" transform="matrix(0.7071 -0.7071 0.7071 0.7071 195.619 -607.908)"/><rect x="-4094.7" y="-523.4" width="6955.9" height="5.1" fill="#EF7858" transform="matrix(0.7071 -0.7071 0.7071 0.7071 187.643 -588.655)"/><rect x="-4075.3" y="-504.2" width="6955.9" height="5.1" fill="#EF7858" transform="matrix(0.7071 -0.7071 0.7071 0.7071 179.756 -569.347)"/><rect x="-4056" y="-484.7" width="6955.9" height="5.1" fill="#EF7858" transform="matrix(0.7071 -0.7071 0.7071 0.7071 171.682 -549.964)"/><rect x="-4036.7" y="-465.4" width="6955.9" height="5.1" fill="#EF7858" transform="matrix(0.7071 -0.7071 0.7071 0.7071 163.674 -530.696)"/><rect x="-4017.3" y="-446.2" width="6955.9" height="5.1" fill="#EF7858" transform="matrix(0.7071 -0.7071 0.7071 0.7071 155.77 -511.357)"/><rect x="-3998.1" y="-427" width="6955.9" height="5.1" fill="#EF7858" transform="matrix(0.7071 -0.7071 0.7071 0.7071 147.763 -492.122)"/><rect x="-3978.8" y="-407.6" width="6955.9" height="5.1" fill="#EF7858" transform="matrix(0.7071 -0.7071 0.7071 0.7071 139.753 -472.846)"/><rect x="-3959.5" y="-388.2" width="6955.9" height="5.1" fill="#EF7858" transform="matrix(0.7071 -0.7071 0.7071 0.7071 131.672 -453.433)"/><rect x="-3940.3" y="-368.9" width="6955.9" height="5.1" fill="#EF7858" transform="matrix(0.7071 -0.7071 0.7071 0.7071 123.644 -434.205)"/><rect x="-3920.9" y="-349.7" width="6955.9" height="5.1" fill="#EF7858" transform="matrix(0.7071 -0.7071 0.7071 0.7071 115.757 -414.897)"/><rect x="-3901.5" y="-330.3" width="6955.9" height="5.1" fill="#EF7858" transform="matrix(0.7071 -0.7071 0.7071 0.7071 107.693 -395.524)"/><rect x="-3882.3" y="-310.9" width="6955.9" height="5.1" fill="#EF7858" transform="matrix(0.7071 -0.7071 0.7071 0.7071 99.6519 -376.242)"/><rect x="-3863" y="-291.7" width="6955.9" height="5.1" fill="#EF7858" transform="matrix(0.7071 -0.7071 0.7071 0.7071 91.6818 -356.977)"/><rect x="-3843.6" y="-272.5" width="6955.9" height="5.1" fill="#EF7858" transform="matrix(0.7071 -0.7071 0.7071 0.7071 83.795 -337.654)"/><rect x="-3824.4" y="-253.2" width="6955.9" height="5.1" fill="#EF7858" transform="matrix(0.7071 -0.7071 0.7071 0.7071 75.7709 -318.403)"/><rect x="-3805" y="-233.7" width="6955.9" height="5.1" fill="#EF7858" transform="matrix(0.7071 -0.7071 0.7071 0.7071 67.6898 -298.999)"/><rect x="-3785.7" y="-214.6" width="6955.9" height="5.1" fill="#EF7858" transform="matrix(0.7071 -0.7071 0.7071 0.7071 59.8032 -279.691)"/><rect x="-3766.5" y="-195.2" width="6955.9" height="5.1" fill="#EF7858" transform="matrix(0.7071 -0.7071 0.7071 0.7071 51.7583 -260.447)"/><rect x="-3747.1" y="-175.8" width="6955.9" height="5.1" fill="#EF7858" transform="matrix(0.7071 -0.7071 0.7071 0.7071 43.6943 -241.074)"/><rect x="-3727.9" y="-156.5" width="6955.9" height="5.1" fill="#EF7858" transform="matrix(0.7071 -0.7071 0.7071 0.7071 35.67 -221.823)"/><rect x="-3708.5" y="-137.3" width="6955.9" height="5.1" fill="#EF7858" transform="matrix(0.7071 -0.7071 0.7071 0.7071 27.766 -202.483)"/><rect x="-3689.2" y="-118.1" width="6955.9" height="5.1" fill="#EF7858" transform="matrix(0.7071 -0.7071 0.7071 0.7071 19.813 -183.235)"/><rect x="-3669.8" y="-98.6" width="6955.9" height="5.1" fill="#EF7858" transform="matrix(0.7071 -0.7071 0.7071 0.7071 11.7149 -163.815)"/><rect x="-3650.6" y="-79.3" width="6955.9" height="5.1" fill="#EF7858" transform="matrix(0.7071 -0.7071 0.7071 0.7071 3.7079 -144.58)"/><rect x="-3631.2" y="-60.1" width="6955.9" height="5.1" fill="#EF7858" transform="matrix(0.7071 -0.7071 0.7071 0.7071 -4.1962 -125.241)"/><rect x="-3612" y="-40.8" width="6955.9" height="5.1" fill="#EF7858" transform="matrix(0.7071 -0.7071 0.7071 0.7071 -12.2202 -105.99)"/><rect x="-3592.7" y="-21.4" width="6955.9" height="5.1" fill="#EF7858" transform="matrix(0.7071 -0.7071 0.7071 0.7071 -20.2737 -86.6309)"/><rect x="-3573.4" y="-2" width="6955.9" height="5.1" fill="#EF7858" transform="matrix(0.7071 -0.7071 0.7071 0.7071 -28.2975 -67.3555)"/><rect x="-3554" y="17.1" width="6955.9" height="5.1" fill="#EF7858" transform="matrix(0.7071 -0.7071 0.7071 0.7071 -36.1843 -48.0474)"/><rect x="-3534.7" y="36.6" width="6955.9" height="5.1" fill="#EF7858" transform="matrix(0.7071 -0.7071 0.7071 0.7071 -44.2656 -28.6436)"/><rect x="-3515.4" y="55.9" width="6955.9" height="5.1" fill="#EF7858" transform="matrix(0.7071 -0.7071 0.7071 0.7071 -52.2691 -9.3891)"/><rect x="-3496.2" y="75.1" width="6955.9" height="5.1" fill="#EF7858" transform="matrix(0.7071 -0.7071 0.7071 0.7071 -60.26 9.863)"/><rect x="-3476.8" y="94.3" width="6955.9" height="5.1" fill="#EF7858" transform="matrix(0.7071 -0.7071 0.7071 0.7071 -68.1466 29.1953)"/><rect x="-3457.6" y="113.7" width="6955.9" height="5.1" fill="#EF7858" transform="matrix(0.7071 -0.7071 0.7071 0.7071 -76.1881 48.4534)"/><rect x="-3438.2" y="133.1" width="6955.9" height="5.1" fill="#EF7858" transform="matrix(0.7071 -0.7071 0.7071 0.7071 -84.2519 67.8504)"/><rect x="-3418.9" y="152.4" width="6955.9" height="5.1" fill="#EF7858" transform="matrix(0.7071 -0.7071 0.7071 0.7071 -92.2763 87.1014)"/><rect x="-3399.6" y="171.6" width="6955.9" height="5.1" fill="#EF7858" transform="matrix(0.7071 -0.7071 0.7071 0.7071 -100.166 106.387)"/><rect x="-3380.2" y="191" width="6955.9" height="5.1" fill="#EF7858" transform="matrix(0.7071 -0.7071 0.7071 0.7071 -108.247 125.775)"/><rect x="-3361" y="210.4" width="6955.9" height="5.1" fill="#EF7858" transform="matrix(0.7071 -0.7071 0.7071 0.7071 -116.289 145.058)"/><rect x="-3341.8" y="229.7" width="6955.9" height="5.1" fill="#EF7858" transform="matrix(0.7071 -0.7071 0.7071 0.7071 -124.296 164.293)"/><rect x="-3322.3" y="248.8" width="6955.9" height="5.1" fill="#EF7858" transform="matrix(0.7071 -0.7071 0.7071 0.7071 -132.146 183.646)"/><rect x="-3303.1" y="268.1" width="6955.9" height="5.1" fill="#EF7858" transform="matrix(0.7071 -0.7071 0.7071 0.7071 -140.17 202.897)"/><rect x="-3283.7" y="287.6" width="6955.9" height="5.1" fill="#EF7858" transform="matrix(0.7071 -0.7071 0.7071 0.7071 -148.251 222.301)"/><rect x="-3264.4" y="306.8" width="6955.9" height="5.1" fill="#EF7858" transform="matrix(0.7071 -0.7071 0.7071 0.7071 -156.137 241.609)"/><rect x="-3245.2" y="326" width="6955.9" height="5.1" fill="#EF7858" transform="matrix(0.7071 -0.7071 0.7071 0.7071 -164.144 260.844)"/><rect x="-3225.8" y="345.5" width="6955.9" height="5.1" fill="#EF7858" transform="matrix(0.7071 -0.7071 0.7071 0.7071 -172.243 280.264)"/><rect x="-3206.4" y="364.7" width="6955.9" height="5.1" fill="#EF7858" transform="matrix(0.7071 -0.7071 0.7071 0.7071 -180.15 299.565)"/><rect x="-3187.2" y="384" width="6955.9" height="5.1" fill="#EF7858" transform="matrix(0.7071 -0.7071 0.7071 0.7071 -188.157 318.8)"/><rect x="-3167.8" y="403.4" width="6955.9" height="5.1" fill="#EF7858" transform="matrix(0.7071 -0.7071 0.7071 0.7071 -196.207 338.182)"/><rect x="-3148.6" y="422.8" width="6955.9" height="5.1" fill="#EF7858" transform="matrix(0.7071 -0.7071 0.7071 0.7071 -204.248 357.464)"/><rect x="-3129.3" y="442" width="6955.9" height="5.1" fill="#EF7858" transform="matrix(0.7071 -0.7071 0.7071 0.7071 -212.233 376.719)"/><rect x="-3109.9" y="461.2" width="6955.9" height="5.1" fill="#EF7858" transform="matrix(0.7071 -0.7071 0.7071 0.7071 -220.137 396.059)"/><rect x="-3090.7" y="480.5" width="6955.9" height="5.1" fill="#EF7858" transform="matrix(0.7071 -0.7071 0.7071 0.7071 -228.144 415.294)"/><rect x="-3071.3" y="500" width="6955.9" height="5.1" fill="#EF7858" transform="matrix(0.7071 -0.7071 0.7071 0.7071 -236.211 434.707)"/><rect x="-3052.1" y="519.3" width="6955.9" height="5.1" fill="#EF7858" transform="matrix(0.7071 -0.7071 0.7071 0.7071 -244.235 453.958)"/><rect x="-3032.8" y="538.4" width="6955.9" height="5.1" fill="#EF7858" transform="matrix(0.7071 -0.7071 0.7071 0.7071 -252.125 473.244)"/><rect x="-3013.4" y="557.9" width="6955.9" height="5.1" fill="#EF7858" transform="matrix(0.7071 -0.7071 0.7071 0.7071 -260.206 492.632)"/><rect x="-2994.1" y="577.2" width="6955.9" height="5.1" fill="#EF7858" transform="matrix(0.7071 -0.7071 0.7071 0.7071 -268.213 511.891)"/><rect x="-2974.9" y="596.5" width="6955.9" height="5.1" fill="#EF7858" transform="matrix(0.7071 -0.7071 0.7071 0.7071 -276.255 531.149)"/><rect x="-2955.5" y="615.6" width="6955.9" height="5.1" fill="#EF7858" transform="matrix(0.7071 -0.7071 0.7071 0.7071 -284.087 550.495)"/><rect x="-2936.3" y="634.9" width="6955.9" height="5.1" fill="#EF7858" transform="matrix(0.7071 -0.7071 0.7071 0.7071 -292.112 569.737)"/><rect x="-2916.9" y="654.4" width="6955.9" height="5.1" fill="#EF7858" transform="matrix(0.7071 -0.7071 0.7071 0.7071 -300.192 589.15)"/><rect x="-2878.3" y="692.9" width="6955.9" height="5.1" fill="#EF7858" transform="matrix(0.7071 -0.7071 0.7071 0.7071 -316.103 627.7)"/><rect x="-2897.5" y="673.6" width="6955.9" height="5.1" fill="#EF7858" transform="matrix(0.7071 -0.7071 0.7071 0.7071 -308.096 608.466)"/><rect x="-2858.9" y="712.4" width="6955.9" height="5.1" fill="#EF7858" transform="matrix(0.7071 -0.7071 0.7071 0.7071 -324.205 647.107)"/><rect x="-2839.7" y="731.7" width="6955.9" height="5.1" fill="#EF7858" transform="matrix(0.7071 -0.7071 0.7071 0.7071 -332.212 666.342)"/><rect x="-2820.5" y="751" width="6955.9" height="5.1" fill="#EF7858" transform="matrix(0.7071 -0.7071 0.7071 0.7071 -340.237 685.593)"/><rect x="-2801" y="770.3" width="6955.9" height="5.1" fill="#EF7858" transform="matrix(0.7071 -0.7071 0.7071 0.7071 -348.197 705.069)"/><rect x="-2781.7" y="789.6" width="6955.9" height="5.1" fill="#EF7858" transform="matrix(0.7071 -0.7071 0.7071 0.7071 -356.166 724.301)"/><rect x="-2762.4" y="808.9" width="6955.9" height="5.1" fill="#EF7858" transform="matrix(0.7071 -0.7071 0.7071 0.7071 -364.192 743.601)"/><rect x="-2743.2" y="828.2" width="6955.9" height="5.1" fill="#EF7858" transform="matrix(0.7071 -0.7071 0.7071 0.7071 -372.199 762.835)"/><rect x="-2723.8" y="847.4" width="6955.9" height="5.1" fill="#EF7858" transform="matrix(0.7071 -0.7071 0.7071 0.7071 -380.103 782.175)"/><rect x="-2704.5" y="866.8" width="6955.9" height="5.1" fill="#EF7858" transform="matrix(0.7071 -0.7071 0.7071 0.7071 -388.184 801.564)"/><rect x="-2685.3" y="886.1" width="6955.9" height="5.1" fill="#EF7858" transform="matrix(0.7071 -0.7071 0.7071 0.7071 -396.191 820.798)"/><rect x="-2666" y="905.4" width="6955.9" height="5.1" fill="#EF7858" transform="matrix(0.7071 -0.7071 0.7071 0.7071 -404.204 840.036)"/><rect x="-2646.5" y="924.7" width="6955.9" height="5.1" fill="#EF7858" transform="matrix(0.7071 -0.7071 0.7071 0.7071 -412.148 859.482)"/><rect x="-2627.3" y="944" width="6955.9" height="5.1" fill="#EF7858" transform="matrix(0.7071 -0.7071 0.7071 0.7071 -420.172 878.748)"/><rect x="-2608.1" y="963.3" width="6955.9" height="5.1" fill="#EF7858" transform="matrix(0.7071 -0.7071 0.7071 0.7071 -428.196 897.999)"/><rect x="-2588.8" y="982.6" width="6955.9" height="5.1" fill="#EF7858" transform="matrix(0.7071 -0.7071 0.7071 0.7071 -436.183 917.262)"/><rect x="-2569.4" y="1001.8" width="6955.9" height="5.1" fill="#EF7858" transform="matrix(0.7071 -0.7071 0.7071 0.7071 -444.053 936.587)"/><rect x="-2550" y="1021.3" width="6955.9" height="5.1" fill="#EF7858" transform="matrix(0.7071 -0.7071 0.7071 0.7071 -452.151 956.007)"/><rect x="-2530.8" y="1040.6" width="6955.9" height="5.1" fill="#EF7858" transform="matrix(0.7071 -0.7071 0.7071 0.7071 -460.158 975.242)"/><rect x="-2511.6" y="1059.9" width="6955.9" height="5.1" fill="#EF7858" transform="matrix(0.7071 -0.7071 0.7071 0.7071 -468.183 994.493)"/><rect x="-2492.1" y="1079.2" width="6955.9" height="5.1" fill="#EF7858" transform="matrix(0.7071 -0.7071 0.7071 0.7071 -476.147 1013.93)"/><rect x="-2472.9" y="1098.5" width="6955.9" height="5.1" fill="#EF7858" transform="matrix(0.7071 -0.7071 0.7071 0.7071 -484.154 1033.19)"/><rect x="-2453.6" y="1117.8" width="6955.9" height="5.1" fill="#EF7858" transform="matrix(0.7071 -0.7071 0.7071 0.7071 -492.195 1052.45)"/><rect x="-2434.1" y="1137.1" width="6955.9" height="5.1" fill="#EF7858" transform="matrix(0.7071 -0.7071 0.7071 0.7071 -500.122 1071.9)"/><rect x="-2414.9" y="1156.5" width="6955.9" height="5.1" fill="#EF7858" transform="matrix(0.7071 -0.7071 0.7071 0.7071 -508.163 1091.16)"/><rect x="-2395.6" y="1175.7" width="6955.9" height="5.1" fill="#EF7858" transform="matrix(0.7071 -0.7071 0.7071 0.7071 -516.133 1110.43)"/><rect x="-2376.4" y="1195" width="6955.9" height="5.1" fill="#EF7858" transform="matrix(0.7071 -0.7071 0.7071 0.7071 -524.158 1129.69)"/><rect x="-2357" y="1214.2" width="6955.9" height="5.1" fill="#EF7858" transform="matrix(0.7071 -0.7071 0.7071 0.7071 -532.044 1149)"/><rect x="-2337.6" y="1233.6" width="6955.9" height="5.1" fill="#EF7858" transform="matrix(0.7071 -0.7071 0.7071 0.7071 -540.108 1168.4)"/><rect x="-2318.4" y="1253" width="6955.9" height="5.1" fill="#EF7858" transform="matrix(0.7071 -0.7071 0.7071 0.7071 -548.149 1187.66)"/><rect x="-2299" y="1272.2" width="6955.9" height="5.1" fill="#EF7858" transform="matrix(0.7071 -0.7071 0.7071 0.7071 -556.033 1206.98)"/><rect x="-2279.7" y="1291.6" width="6955.9" height="5.1" fill="#EF7858" transform="matrix(0.7071 -0.7071 0.7071 0.7071 -564.121 1226.35)"/><rect x="-2260.4" y="1310.9" width="6955.9" height="5.1" fill="#EF7858" transform="matrix(0.7071 -0.7071 0.7071 0.7071 -572.145 1245.6)"/><rect x="-2241.2" y="1330.2" width="6955.9" height="5.1" fill="#EF7858" transform="matrix(0.7071 -0.7071 0.7071 0.7071 -580.155 1264.88)"/><rect x="-2221.9" y="1349.5" width="6955.9" height="5.1" fill="#EF7858" transform="matrix(0.7071 -0.7071 0.7071 0.7071 -588.139 1284.14)"/><rect x="-2202.5" y="1368.7" width="6955.9" height="5.1" fill="#EF7858" transform="matrix(0.7071 -0.7071 0.7071 0.7071 -596.043 1303.47)"/><rect x="-2183.2" y="1388.1" width="6955.9" height="5.1" fill="#EF7858" transform="matrix(0.7071 -0.7071 0.7071 0.7071 -604.107 1322.85)"/><rect x="-2164" y="1407.4" width="6955.9" height="5.1" fill="#EF7858" transform="matrix(0.7071 -0.7071 0.7071 0.7071 -612.131 1342.1)"/><rect x="-2144.6" y="1426.6" width="6955.9" height="5.1" fill="#EF7858" transform="matrix(0.7071 -0.7071 0.7071 0.7071 -620.004 1361.43)"/><rect x="-2125.2" y="1446" width="6955.9" height="5.1" fill="#EF7858" transform="matrix(0.7071 -0.7071 0.7071 0.7071 -628.088 1380.8)"/><rect x="-2106" y="1465.4" width="6955.9" height="5.1" fill="#EF7858" transform="matrix(0.7071 -0.7071 0.7071 0.7071 -636.113 1400.05)"/><rect x="-2086.8" y="1484.6" width="6955.9" height="5.1" fill="#EF7858" transform="matrix(0.7071 -0.7071 0.7071 0.7071 -644.12 1419.28)"/><rect x="-2067.3" y="1504" width="6955.9" height="5.1" fill="#EF7858" transform="matrix(0.7071 -0.7071 0.7071 0.7071 -652.081 1438.76)"/><rect x="-2048" y="1523.2" width="6955.9" height="5.1" fill="#EF7858" transform="matrix(0.7071 -0.7071 0.7071 0.7071 -660.067 1458.01)"/><rect x="-2028.7" y="1542.6" width="6955.9" height="5.1" fill="#EF7858" transform="matrix(0.7071 -0.7071 0.7071 0.7071 -668.075 1477.29)"/><rect x="-2009.5" y="1561.9" width="6955.9" height="5.1" fill="#EF7858" transform="matrix(0.7071 -0.7071 0.7071 0.7071 -676.099 1496.54)"/><rect x="-1990.1" y="1581.1" width="6955.9" height="5.1" fill="#EF7858" transform="matrix(0.7071 -0.7071 0.7071 0.7071 -684.003 1515.88)"/><rect x="-1970.8" y="1600.5" width="6955.9" height="5.1" fill="#EF7858" transform="matrix(0.7071 -0.7071 0.7071 0.7071 -692.067 1535.25)"/><rect x="-1951.5" y="1619.8" width="6955.9" height="5.1" fill="#EF7858" transform="matrix(0.7071 -0.7071 0.7071 0.7071 -700.091 1554.5)"/><rect x="-1932.3" y="1639.1" width="6955.9" height="5.1" fill="#EF7858" transform="matrix(0.7071 -0.7071 0.7071 0.7071 -708.119 1573.73)"/><rect x="-1913" y="1658.6" width="6955.9" height="5.1" fill="#EF7858" transform="matrix(0.7071 -0.7071 0.7071 0.7071 -716.2 1593.12)"/><rect x="-1893.6" y="1677.8" width="6955.9" height="5.1" fill="#EF7858" transform="matrix(0.7071 -0.7071 0.7071 0.7071 -724.104 1612.46)"/><rect x="-1874.4" y="1697.1" width="6955.9" height="5.1" fill="#EF7858" transform="matrix(0.7071 -0.7071 0.7071 0.7071 -732.111 1631.7)"/><rect x="-1855.1" y="1716.3" width="6955.9" height="5.1" fill="#EF7858" transform="matrix(0.7071 -0.7071 0.7071 0.7071 -740.098 1650.99)"/><rect x="-1835.7" y="1735.5" width="6955.9" height="5.1" fill="#EF7858" transform="matrix(0.7071 -0.7071 0.7071 0.7071 -747.985 1670.3)"/><rect x="-1816.3" y="1755" width="6955.9" height="5.1" fill="#EF7858" transform="matrix(0.7071 -0.7071 0.7071 0.7071 -756.066 1689.7)"/><rect x="-1797.1" y="1774.3" width="6955.9" height="5.1" fill="#EF7858" transform="matrix(0.7071 -0.7071 0.7071 0.7071 -764.09 1708.96)"/><rect x="-1777.9" y="1793.6" width="6955.9" height="5.1" fill="#EF7858" transform="matrix(0.7071 -0.7071 0.7071 0.7071 -772.097 1728.19)"/><rect x="-1758.4" y="1812.9" width="6955.9" height="5.1" fill="#EF7858" transform="matrix(0.7071 -0.7071 0.7071 0.7071 -780.03 1747.65)"/><rect x="-1739.1" y="1832.2" width="6955.9" height="5.1" fill="#EF7858" transform="matrix(0.7071 -0.7071 0.7071 0.7071 -788.054 1766.9)"/><rect x="-1719.9" y="1851.5" width="6955.9" height="5.1" fill="#EF7858" transform="matrix(0.7071 -0.7071 0.7071 0.7071 -796.078 1786.16)"/><rect x="-1700.7" y="1870.8" width="6955.9" height="5.1" fill="#EF7858" transform="matrix(0.7071 -0.7071 0.7071 0.7071 -804.103 1805.41)"/><rect x="-1681.2" y="1890.1" width="6955.9" height="5.1" fill="#EF7858" transform="matrix(0.7071 -0.7071 0.7071 0.7071 -812.04 1824.85)"/><rect x="-1661.9" y="1909.4" width="6955.9" height="5.1" fill="#EF7858" transform="matrix(0.7071 -0.7071 0.7071 0.7071 -820.017 1844.14)"/><rect x="-1642.6" y="1928.7" width="6955.9" height="5.1" fill="#EF7858" transform="matrix(0.7071 -0.7071 0.7071 0.7071 -828.058 1863.42)"/><rect x="-1603.9" y="1967.3" width="6955.9" height="5.1" fill="#EF7858" transform="matrix(0.7071 -0.7071 0.7071 0.7071 -844.009 1902.1)"/><rect x="-1623.4" y="1948" width="6955.9" height="5.1" fill="#EF7858" transform="matrix(0.7071 -0.7071 0.7071 0.7071 -836.065 1882.66)"/><rect x="-1584.7" y="1986.7" width="6955.9" height="5.1" fill="#EF7858" transform="matrix(0.7071 -0.7071 0.7071 0.7071 -852.05 1921.39)"/><rect x="-1565.5" y="2005.9" width="6955.9" height="5.1" fill="#EF7858" transform="matrix(0.7071 -0.7071 0.7071 0.7071 -860.061 1940.58)"/><rect x="-1546" y="2025.3" width="6955.9" height="5.1" fill="#EF7858" transform="matrix(0.7071 -0.7071 0.7071 0.7071 -868.021 1960.06)"/><rect x="-1526.7" y="2044.6" width="6955.9" height="5.1" fill="#EF7858" transform="matrix(0.7071 -0.7071 0.7071 0.7071 -876.028 1979.29)"/><rect x="-1507.5" y="2063.9" width="6955.9" height="5.1" fill="#EF7858" transform="matrix(0.7071 -0.7071 0.7071 0.7071 -884.07 1998.58)"/><rect x="-1488.2" y="2083.2" width="6955.9" height="5.1" fill="#EF7858" transform="matrix(0.7071 -0.7071 0.7071 0.7071 -892.04 2017.84)"/><rect x="-1468.8" y="2102.4" width="6955.9" height="5.1" fill="#EF7858" transform="matrix(0.7071 -0.7071 0.7071 0.7071 -899.926 2037.16)"/><rect x="-1449.5" y="2121.8" width="6955.9" height="5.1" fill="#EF7858" transform="matrix(0.7071 -0.7071 0.7071 0.7071 -908.008 2056.55)"/><rect x="-1430.2" y="2141.1" width="6955.9" height="5.1" fill="#EF7858" transform="matrix(0.7071 -0.7071 0.7071 0.7071 -916.032 2075.8)"/><rect x="-1411" y="2160.4" width="6955.9" height="5.1" fill="#EF7858" transform="matrix(0.7071 -0.7071 0.7071 0.7071 -924.056 2095.07)"/><rect x="-1391.7" y="2179.9" width="6955.9" height="5.1" fill="#EF7858" transform="matrix(0.7071 -0.7071 0.7071 0.7071 -932.141 2114.42)"/><rect x="-1372.3" y="2199.1" width="6955.9" height="5.1" fill="#EF7858" transform="matrix(0.7071 -0.7071 0.7071 0.7071 -940.028 2133.74)"/><rect x="-1353.1" y="2218.4" width="6955.9" height="5.1" fill="#EF7858" transform="matrix(0.7071 -0.7071 0.7071 0.7071 -948.052 2153)"/><rect x="-1333.5" y="2237.7" width="6955.9" height="5.1" fill="#EF7858" transform="matrix(0.7071 -0.7071 0.7071 0.7071 -956.012 2172.47)"/><rect x="-1314.5" y="2257.1" width="6955.9" height="5.1" fill="#EF7858" transform="matrix(0.7071 -0.7071 0.7071 0.7071 -964.119 2191.65)"/><rect x="-1295" y="2276.3" width="6955.9" height="5.1" fill="#EF7858" transform="matrix(0.7071 -0.7071 0.7071 0.7071 -972.007 2211)"/><rect x="-1275.8" y="2295.6" width="6955.9" height="5.1" fill="#EF7858" transform="matrix(0.7071 -0.7071 0.7071 0.7071 -980.014 2230.24)"/><rect x="-1256.6" y="2314.9" width="6955.9" height="5.1" fill="#EF7858" transform="matrix(0.7071 -0.7071 0.7071 0.7071 -988.038 2249.49)"/><rect x="-1237.1" y="2334.2" width="6955.9" height="5.1" fill="#EF7858" transform="matrix(0.7071 -0.7071 0.7071 0.7071 -995.999 2268.97)"/><rect x="-1217.8" y="2353.5" width="6955.9" height="5.1" fill="#EF7858" transform="matrix(0.7071 -0.7071 0.7071 0.7071 -1003.97 2288.22)"/><rect x="-1198.6" y="2372.8" width="6955.9" height="5.1" fill="#EF7858" transform="matrix(0.7071 -0.7071 0.7071 0.7071 -1012.02 2307.46)"/><rect x="-1179.2" y="2392.3" width="6955.9" height="5.1" fill="#EF7858" transform="matrix(0.7071 -0.7071 0.7071 0.7071 -1020.1 2326.85)"/><rect x="-1159.9" y="2411.4" width="6955.9" height="5.1" fill="#EF7858" transform="matrix(0.7071 -0.7071 0.7071 0.7071 -1027.99 2346.18)"/><rect x="-1140.6" y="2430.8" width="6955.9" height="5.1" fill="#EF7858" transform="matrix(0.7071 -0.7071 0.7071 0.7071 -1036.01 2365.43)"/><rect x="-1121.3" y="2450" width="6955.9" height="5.1" fill="#EF7858" transform="matrix(0.7071 -0.7071 0.7071 0.7071 -1043.98 2384.71)"/><rect x="-1102.1" y="2469.3" width="6955.9" height="5.1" fill="#EF7858" transform="matrix(0.7071 -0.7071 0.7071 0.7071 -1052.01 2403.96)"/><rect x="-1082.6" y="2488.6" width="6955.9" height="5.1" fill="#EF7858" transform="matrix(0.7071 -0.7071 0.7071 0.7071 -1059.95 2423.4)"/><rect x="-1063.4" y="2508" width="6955.9" height="5.1" fill="#EF7858" transform="matrix(0.7071 -0.7071 0.7071 0.7071 -1067.97 2442.67)"/><rect x="-1044.1" y="2527.3" width="6955.9" height="5.1" fill="#EF7858" transform="matrix(0.7071 -0.7071 0.7071 0.7071 -1076 2461.92)"/><rect x="-1024.7" y="2546.6" width="6955.9" height="5.1" fill="#EF7858" transform="matrix(0.7071 -0.7071 0.7071 0.7071 -1083.96 2481.36)"/><rect x="-1005.4" y="2565.9" width="6955.9" height="5.1" fill="#EF7858" transform="matrix(0.7071 -0.7071 0.7071 0.7071 -1091.97 2500.59)"/><rect x="-986.2" y="2585.2" width="6955.9" height="5.1" fill="#EF7858" transform="matrix(0.7071 -0.7071 0.7071 0.7071 -1100.01 2519.88)"/><rect x="-966.8" y="2604.7" width="6955.9" height="5.1" fill="#EF7858" transform="matrix(0.7071 -0.7071 0.7071 0.7071 -1108.07 2539.25)"/><rect x="-947.5" y="2623.7" width="6955.9" height="5.1" fill="#EF7858" transform="matrix(0.7071 -0.7071 0.7071 0.7071 -1115.87 2558.46)"/><rect x="-928.2" y="2643.1" width="6955.9" height="5.1" fill="#EF7858" transform="matrix(0.7071 -0.7071 0.7071 0.7071 -1123.95 2577.85)"/><rect x="-909" y="2662.4" width="6955.9" height="5.1" fill="#EF7858" transform="matrix(0.7071 -0.7071 0.7071 0.7071 -1131.96 2597.09)"/><rect x="-889.7" y="2681.8" width="6955.9" height="5.1" fill="#EF7858" transform="matrix(0.7071 -0.7071 0.7071 0.7071 -1140 2616.37)"/><rect x="-870.4" y="2701.2" width="6955.9" height="5.1" fill="#EF7858" transform="matrix(0.7071 -0.7071 0.7071 0.7071 -1148.06 2635.74)"/><rect x="-851" y="2720.4" width="6955.9" height="5.1" fill="#EF7858" transform="matrix(0.7071 -0.7071 0.7071 0.7071 -1155.96 2655.08)"/><rect x="-831.7" y="2739.7" width="6955.9" height="5.1" fill="#EF7858" transform="matrix(0.7071 -0.7071 0.7071 0.7071 -1163.96 2674.31)"/><rect x="-812.5" y="2759" width="6955.9" height="5.1" fill="#EF7858" transform="matrix(0.7071 -0.7071 0.7071 0.7071 -1171.99 2693.58)"/><rect x="-793" y="2778.3" width="6955.9" height="5.1" fill="#EF7858" transform="matrix(0.7071 -0.7071 0.7071 0.7071 -1179.93 2713.02)"/><rect x="-773.7" y="2797.6" width="6955.9" height="5.1" fill="#EF7858" transform="matrix(0.7071 -0.7071 0.7071 0.7071 -1187.97 2732.31)"/><rect x="-754.5" y="2816.9" width="6955.9" height="5.1" fill="#EF7858" transform="matrix(0.7071 -0.7071 0.7071 0.7071 -1195.92 2751.56)"/><rect x="-735.3" y="2836.2" width="6955.9" height="5.1" fill="#EF7858" transform="matrix(0.7071 -0.7071 0.7071 0.7071 -1203.96 2770.81)"/><rect x="-715.9" y="2855.3" width="6955.9" height="5.1" fill="#EF7858" transform="matrix(0.7071 -0.7071 0.7071 0.7071 -1211.83 2790.13)"/><rect x="-696.5" y="2874.8" width="6955.9" height="5.1" fill="#EF7858" transform="matrix(0.7071 -0.7071 0.7071 0.7071 -1219.92 2809.52)"/><rect x="-677.3" y="2894.1" width="6955.9" height="5.1" fill="#EF7858" transform="matrix(0.7071 -0.7071 0.7071 0.7071 -1227.96 2828.8)"/><rect x="-658" y="2913.6" width="6955.9" height="5.1" fill="#EF7858" transform="matrix(0.7071 -0.7071 0.7071 0.7071 -1236.02 2848.14)"/><rect x="-638.6" y="2932.8" width="6955.9" height="5.1" fill="#EF7858" transform="matrix(0.7071 -0.7071 0.7071 0.7071 -1243.93 2867.48)"/><rect x="-619.3" y="2952" width="6955.9" height="5.1" fill="#EF7858" transform="matrix(0.7071 -0.7071 0.7071 0.7071 -1251.94 2886.71)"/><rect x="-600.1" y="2971.4" width="6955.9" height="5.1" fill="#EF7858" transform="matrix(0.7071 -0.7071 0.7071 0.7071 -1259.98 2905.99)"/><rect x="-580.7" y="2990.8" width="6955.9" height="5.1" fill="#EF7858" transform="matrix(0.7071 -0.7071 0.7071 0.7071 -1268.02 2925.38)"/><rect x="-561.3" y="3010" width="6955.9" height="5.1" fill="#EF7858" transform="matrix(0.7071 -0.7071 0.7071 0.7071 -1275.89 2944.72)"/><rect x="-542.1" y="3029.3" width="6955.9" height="5.1" fill="#EF7858" transform="matrix(0.7071 -0.7071 0.7071 0.7071 -1283.91 2963.97)"/><rect x="-522.9" y="3048.6" width="6955.9" height="5.1" fill="#EF7858" transform="matrix(0.7071 -0.7071 0.7071 0.7071 -1291.94 2983.22)"/><rect x="-503.5" y="3067.8" width="6955.9" height="5.1" fill="#EF7858" transform="matrix(0.7071 -0.7071 0.7071 0.7071 -1299.83 3002.54)"/><rect x="-484.1" y="3087.2" width="6955.9" height="5.1" fill="#EF7858" transform="matrix(0.7071 -0.7071 0.7071 0.7071 -1307.91 3021.93)"/><rect x="-464.9" y="3106.5" width="6955.9" height="5.1" fill="#EF7858" transform="matrix(0.7071 -0.7071 0.7071 0.7071 -1315.93 3041.16)"/><rect x="-445.5" y="3126" width="6955.9" height="5.1" fill="#EF7858" transform="matrix(0.7071 -0.7071 0.7071 0.7071 -1324.02 3060.55)"/><rect x="-426.2" y="3145.2" width="6955.9" height="5.1" fill="#EF7858" transform="matrix(0.7071 -0.7071 0.7071 0.7071 -1331.92 3079.89)"/><rect x="-406.9" y="3164.4" width="6955.9" height="5.1" fill="#EF7858" transform="matrix(0.7071 -0.7071 0.7071 0.7071 -1339.89 3099.12)"/><rect x="-387.6" y="3183.8" width="6955.9" height="5.1" fill="#EF7858" transform="matrix(0.7071 -0.7071 0.7071 0.7071 -1347.91 3118.42)"/><rect x="-368.4" y="3203.1" width="6955.9" height="5.1" fill="#EF7858" transform="matrix(0.7071 -0.7071 0.7071 0.7071 -1355.94 3137.67)"/><rect x="-329.7" y="3241.7" width="6955.9" height="5.1" fill="#EF7858" transform="matrix(0.7071 -0.7071 0.7071 0.7071 -1371.91 3176.38)"/><rect x="-349.1" y="3222.5" width="6955.9" height="5.1" fill="#EF7858" transform="matrix(0.7071 -0.7071 0.7071 0.7071 -1364 3157.04)"/><rect x="-310.4" y="3260.9" width="6955.9" height="5.1" fill="#EF7858" transform="matrix(0.7071 -0.7071 0.7071 0.7071 -1379.88 3195.61)"/><rect x="-291.1" y="3280.4" width="6955.9" height="5.1" fill="#EF7858" transform="matrix(0.7071 -0.7071 0.7071 0.7071 -1387.98 3214.99)"/><rect x="-271.7" y="3299.6" width="6955.9" height="5.1" fill="#EF7858" transform="matrix(0.7071 -0.7071 0.7071 0.7071 -1395.87 3234.32)"/><rect x="-252.5" y="3318.9" width="6955.9" height="5.1" fill="#EF7858" transform="matrix(0.7071 -0.7071 0.7071 0.7071 -1403.89 3253.57)"/><rect x="-233.2" y="3338.2" width="6955.9" height="5.1" fill="#EF7858" transform="matrix(0.7071 -0.7071 0.7071 0.7071 -1411.92 3272.84)"/><rect x="-214" y="3357.5" width="6955.9" height="5.1" fill="#EF7858" transform="matrix(0.7071 -0.7071 0.7071 0.7071 -1419.9 3292.08)"/><rect x="-194.6" y="3376.7" width="6955.9" height="5.1" fill="#EF7858" transform="matrix(0.7071 -0.7071 0.7071 0.7071 -1427.78 3311.43)"/><rect x="-175.2" y="3396.1" width="6955.9" height="5.1" fill="#EF7858" transform="matrix(0.7071 -0.7071 0.7071 0.7071 -1435.86 3330.82)"/><rect x="-156" y="3415.4" width="6955.9" height="5.1" fill="#EF7858" transform="matrix(0.7071 -0.7071 0.7071 0.7071 -1443.88 3350.06)"/><rect x="-136.8" y="3434.7" width="6955.9" height="5.1" fill="#EF7858" transform="matrix(0.7071 -0.7071 0.7071 0.7071 -1451.9 3369.34)"/><rect x="-117.3" y="3454.1" width="6955.9" height="5.1" fill="#EF7858" transform="matrix(0.7071 -0.7071 0.7071 0.7071 -1459.86 3388.79)"/><rect x="-98.1" y="3473.4" width="6955.9" height="5.1" fill="#EF7858" transform="matrix(0.7071 -0.7071 0.7071 0.7071 -1467.88 3408.01)"/><rect x="-78.8" y="3492.7" width="6955.9" height="5.1" fill="#EF7858" transform="matrix(0.7071 -0.7071 0.7071 0.7071 -1475.92 3427.29)"/><rect x="-59.4" y="3512.1" width="6955.9" height="5.1" fill="#EF7858" transform="matrix(0.7071 -0.7071 0.7071 0.7071 -1483.98 3446.66)"/><rect x="-40.1" y="3531.3" width="6955.9" height="5.1" fill="#EF7858" transform="matrix(0.7071 -0.7071 0.7071 0.7071 -1491.87 3465.97)"/><rect x="-20.8" y="3550.6" width="6955.9" height="5.1" fill="#EF7858" transform="matrix(0.7071 -0.7071 0.7071 0.7071 -1499.86 3485.27)"/><rect x="-1.6" y="3569.9" width="6955.9" height="5.1" fill="#EF7858" transform="matrix(0.7071 -0.7071 0.7071 0.7071 -1507.86 3504.5)"/><rect x="17.8" y="3589.1" width="6955.9" height="5.1" fill="#EF7858" transform="matrix(0.7071 -0.7071 0.7071 0.7071 -1515.77 3523.84)"/><rect x="37.2" y="3608.5" width="6955.9" height="5.1" fill="#EF7858" transform="matrix(0.7071 -0.7071 0.7071 0.7071 -1523.83 3543.22)"/><rect x="56.4" y="3627.9" width="6955.9" height="5.1" fill="#EF7858" transform="matrix(0.7071 -0.7071 0.7071 0.7071 -1531.87 3562.5)"/><rect x="75.8" y="3647.2" width="6955.9" height="5.1" fill="#EF7858" transform="matrix(0.7071 -0.7071 0.7071 0.7071 -1539.92 3581.84)"/><rect x="95" y="3666.6" width="6955.9" height="5.1" fill="#EF7858" transform="matrix(0.7071 -0.7071 0.7071 0.7071 -1547.95 3601.11)"/><rect x="114.4" y="3685.7" width="6955.9" height="5.1" fill="#EF7858" transform="matrix(0.7071 -0.7071 0.7071 0.7071 -1555.84 3620.42)"/><rect x="133.6" y="3705.1" width="6955.9" height="5.1" fill="#EF7858" transform="matrix(0.7071 -0.7071 0.7071 0.7071 -1563.86 3639.67)"/><rect x="153" y="3724.5" width="6955.9" height="5.1" fill="#EF7858" transform="matrix(0.7071 -0.7071 0.7071 0.7071 -1571.93 3659.07)"/><rect x="172.3" y="3743.5" width="6955.9" height="5.1" fill="#EF7858" transform="matrix(0.7071 -0.7071 0.7071 0.7071 -1579.73 3678.29)"/><rect x="191.6" y="3762.9" width="6955.9" height="5.1" fill="#EF7858" transform="matrix(0.7071 -0.7071 0.7071 0.7071 -1587.8 3697.66)"/><rect x="210.8" y="3782.3" width="6955.9" height="5.1" fill="#EF7858" transform="matrix(0.7071 -0.7071 0.7071 0.7071 -1595.82 3716.91)"/><rect x="230.1" y="3801.6" width="6955.9" height="5.1" fill="#EF7858" transform="matrix(0.7071 -0.7071 0.7071 0.7071 -1603.86 3736.19)"/><rect x="249.4" y="3821" width="6955.9" height="5.1" fill="#EF7858" transform="matrix(0.7071 -0.7071 0.7071 0.7071 -1611.93 3755.55)"/><rect x="268.8" y="3840.2" width="6955.9" height="5.1" fill="#EF7858" transform="matrix(0.7071 -0.7071 0.7071 0.7071 -1619.83 3774.87)"/><rect x="288.1" y="3859.5" width="6955.9" height="5.1" fill="#EF7858" transform="matrix(0.7071 -0.7071 0.7071 0.7071 -1627.86 3794.14)"/></g></g></svg>